<svg width="24" height="24" viewBox="0 0 24 24" fill="none" xmlns="http://www.w3.org/2000/svg">
<path d="M16.5713 14.5363C16.5713 15.6606 15.6599 16.572 14.5356 16.572C13.4113 16.572 12.4999 15.6606 12.4999 14.5363C12.4999 13.412 13.4113 12.5006 14.5356 12.5006C15.6599 12.5006 16.5713 13.412 16.5713 14.5363Z" fill="#8593A5"/>
<path fill-rule="evenodd" clip-rule="evenodd" d="M12.8822 21.6148C12.3835 21.1161 12.3835 20.3076 12.8822 19.8089L19.5154 13.1757C20.0141 12.677 20.8226 12.677 21.3213 13.1757C21.82 13.6744 21.82 14.4829 21.3213 14.9816L14.688 21.6148C14.1894 22.1135 13.3808 22.1135 12.8822 21.6148Z" fill="#8593A5"/>
<path d="M21.9999 19.9643C21.9999 21.0886 21.0884 22 19.9642 22C18.8399 22 17.9285 21.0886 17.9285 19.9643C17.9285 18.84 18.8399 17.9286 19.9642 17.9286C21.0884 17.9286 21.9999 18.84 21.9999 19.9643Z" fill="#8593A5"/>
<path d="M13.3143 3.27143C12.8317 2.90952 12.1683 2.90952 11.6857 3.27143L3.54293 9.37852C2.94331 9.82823 2.82179 10.6789 3.27151 11.2785C3.53788 11.6337 3.94491 11.8211 4.35713 11.8214V21.3211C4.35713 21.6959 4.66094 21.9997 5.0357 21.9997H10.4642C10.839 21.9997 11.1428 21.6959 11.1428 21.3211V19.964C11.1428 19.5892 10.839 19.2854 10.4642 19.2854H7.07139V10.125L12.0929 6.3589C12.3341 6.17795 12.6659 6.17795 12.9071 6.3589L19.8285 11.5499C20.4281 11.9996 21.2788 11.8781 21.7285 11.2785C22.1782 10.6789 22.0567 9.82823 21.4571 9.37852L13.3143 3.27143Z" fill="#8593A5"/>
</svg>
