<svg width="24" height="24" viewBox="0 0 24 24" fill="none" xmlns="http://www.w3.org/2000/svg">
<path d="M6.85714 7.49982C6.85714 7.14478 7.14496 6.85697 7.5 6.85697H8.78571C9.14075 6.85697 9.42857 7.14478 9.42857 7.49982V8.78554C9.42857 9.14058 9.14075 9.42839 8.78571 9.42839H7.5C7.14496 9.42839 6.85714 9.14058 6.85714 8.78554V7.49982Z" fill="#8593A5"/>
<path d="M10.7143 7.48305C10.7143 7.12801 11.0021 6.84019 11.3571 6.84019H12.6429C12.9979 6.84019 13.2857 7.12801 13.2857 7.48305V8.76876C13.2857 9.1238 12.9979 9.41162 12.6429 9.41162H11.3571C11.0021 9.41162 10.7143 9.1238 10.7143 8.76876V7.48305Z" fill="#8593A5"/>
<path d="M4.92857 21H3.64286C3.28782 21 3 20.7122 3 20.3571V4.28571C3 3.57563 3.57563 3 4.28571 3H15.8571C16.5672 3 17.1429 3.57563 17.1429 4.28571V8.92512C17.1429 9.20254 16.917 9.42692 16.6396 9.42511L15.0682 9.41486C14.7933 9.41307 14.5714 9.18974 14.5714 8.91487V5.95714C14.5714 5.74412 14.3987 5.57143 14.1857 5.57143H5.95714C5.74412 5.57143 5.57143 5.74412 5.57143 5.95714V20.3571C5.57143 20.7122 5.28361 21 4.92857 21Z" fill="#8593A5"/>
<path d="M8.78571 20.9998H7.5C7.14496 20.9998 6.85714 20.712 6.85714 20.357V11.9998C6.85714 11.2897 7.43278 10.7141 8.14286 10.7141H19.7143C20.4244 10.7141 21 11.2897 21 11.9998V20.4966C21 20.774 20.7741 20.9984 20.4967 20.9965L18.9253 20.9863C18.6504 20.9845 18.4286 20.7612 18.4286 20.4863V13.6713C18.4286 13.4582 18.2559 13.2855 18.0429 13.2855H9.81429C9.60126 13.2855 9.42857 13.4582 9.42857 13.6713V20.357C9.42857 20.712 9.14075 20.9998 8.78571 20.9998Z" fill="#8593A5"/>
<path d="M10.7143 15.2141C10.7143 14.8591 11.0021 14.5713 11.3571 14.5713H12.6429C12.9979 14.5713 13.2857 14.8591 13.2857 15.2141V16.4998C13.2857 16.8549 12.9979 17.1427 12.6429 17.1427H11.3571C11.0021 17.1427 10.7143 16.8549 10.7143 16.4998V15.2141Z" fill="#8593A5"/>
<path d="M14.5714 15.1973C14.5714 14.8423 14.8592 14.5545 15.2143 14.5545H16.5C16.855 14.5545 17.1429 14.8423 17.1429 15.1973V16.483C17.1429 16.8381 16.855 17.1259 16.5 17.1259H15.2143C14.8592 17.1259 14.5714 16.8381 14.5714 16.483V15.1973Z" fill="#8593A5"/>
<path d="M10.7143 19.0714C10.7143 18.7164 11.0021 18.4286 11.3571 18.4286H12.6429C12.9979 18.4286 13.2857 18.7164 13.2857 19.0714V20.3571C13.2857 20.7122 12.9979 21 12.6429 21H11.3571C11.0021 21 10.7143 20.7122 10.7143 20.3571V19.0714Z" fill="#8593A5"/>
<path d="M14.5714 19.0547C14.5714 18.6996 14.8592 18.4118 15.2143 18.4118H16.5C16.855 18.4118 17.1429 18.6996 17.1429 19.0547V20.3404C17.1429 20.6954 16.855 20.9832 16.5 20.9832H15.2143C14.8592 20.9832 14.5714 20.6954 14.5714 20.3404V19.0547Z" fill="#8593A5"/>
</svg>
