<svg width="24" height="24" viewBox="0 0 24 24" fill="none" xmlns="http://www.w3.org/2000/svg">
<g id="icon 16">
<path id="shape" d="M20.8125 4.125V19.875C20.8125 20.5712 20.5359 21.2389 20.0437 21.7312C19.5514 22.2234 18.8837 22.5 18.1875 22.5H6.375C5.67881 22.5 5.01113 22.2234 4.51884 21.7312C4.02656 21.2389 3.75 20.5712 3.75 19.875V4.125C3.75 3.42881 4.02656 2.76113 4.51884 2.26884C5.01113 1.77656 5.67881 1.5 6.375 1.5H18.1875C18.8837 1.5 19.5514 1.77656 20.0437 2.26884C20.5359 2.76113 20.8125 3.42881 20.8125 4.125ZM15.5625 18.5625C15.5625 18.2144 15.4242 17.8806 15.1781 17.6344C14.9319 17.3883 14.5981 17.25 14.25 17.25H7.6875C7.3394 17.25 7.00556 17.3883 6.75942 17.6344C6.51328 17.8806 6.375 18.2144 6.375 18.5625C6.375 18.9106 6.51328 19.2444 6.75942 19.4906C7.00556 19.7367 7.3394 19.875 7.6875 19.875H14.25C14.5981 19.875 14.9319 19.7367 15.1781 19.4906C15.4242 19.2444 15.5625 18.9106 15.5625 18.5625ZM18.1875 14.625C18.1875 14.2769 18.0492 13.9431 17.8031 13.6969C17.5569 13.4508 17.2231 13.3125 16.875 13.3125H7.6875C7.3394 13.3125 7.00556 13.4508 6.75942 13.6969C6.51328 13.9431 6.375 14.2769 6.375 14.625C6.375 14.9731 6.51328 15.3069 6.75942 15.5531C7.00556 15.7992 7.3394 15.9375 7.6875 15.9375H16.875C17.2231 15.9375 17.5569 15.7992 17.8031 15.5531C18.0492 15.3069 18.1875 14.9731 18.1875 14.625ZM18.1875 5.4375C18.1875 5.0894 18.0492 4.75556 17.8031 4.50942C17.5569 4.26328 17.2231 4.125 16.875 4.125H7.6875C7.3394 4.125 7.00556 4.26328 6.75942 4.50942C6.51328 4.75556 6.375 5.0894 6.375 5.4375V9.375C6.375 9.7231 6.51328 10.0569 6.75942 10.3031C7.00556 10.5492 7.3394 10.6875 7.6875 10.6875H16.875C17.2231 10.6875 17.5569 10.5492 17.8031 10.3031C18.0492 10.0569 18.1875 9.7231 18.1875 9.375V5.4375Z" fill="#8593A5"/>
</g>
</svg>
