<svg xmlns="http://www.w3.org/2000/svg" width="129" height="28" fill="none"><path fill="#00ae45" d="M25.8 9.913v5.329h-5.527v-4.158L12.9 6.083l-7.373 5.001v11.174h9.07v5.527H2.838C1.31 27.715 0 26.465 0 24.996V9.913c0-1.32.585-2.352 1.598-3.007L11.342.387C11.808.109 12.354 0 12.9 0s1.092.11 1.558.387l9.744 6.52c1.012.654 1.598 1.686 1.598 3.006m-10.39 8.93v8.942l10.39-11.72h-7.63c-1.529 0-2.76 1.25-2.76 2.789z"/><path fill="#00ae45" fill-rule="evenodd" d="M46.667 18.074h2.304v5.068h-2.786v-2.216H35.538v2.216h-2.792v-5.075h1.823c.701-.821 1.595-2.713 1.884-8.65l.035-3.204h10.179zm-7.27-9.203-.117 2.707c-.316 4.121-.825 5.785-1.437 6.49h5.866V8.822zM55.656 9.478c3.673 0 6.039 2.417 6.039 5.655 0 3.23-2.366 5.654-6.039 5.654s-6.038-2.416-6.039-5.654 2.367-5.655 6.04-5.655m0 2.59c-1.678 0-3.005 1.194-3.005 3.065 0 1.795 1.279 3.086 3.005 3.086 1.747 0 3.033-1.222 3.033-3.086 0-1.823-1.306-3.065-3.033-3.065" clip-rule="evenodd"/><path fill="#00ae45" d="M101.275 20.518h-2.833v-8.023h-2.861l-.041 1.167c-.138 6.138-2.05 7.222-5.11 6.925v-2.665c1.643.11 2.31-.663 2.386-4.805l.055-3.376h8.404zM69.565 13.649 73.14 9.74h2.49v10.777h-2.834v-6.587l-3.28 3.425h-.076l-3.377-3.425v6.587H63.23V9.741h2.566zM81.266 13.954l4.182-4.213h3.576l-4.966 5.123 5.386 5.654h-3.7l-4.478-4.346v4.346h-2.834V9.741h2.834zM106.914 16.569l5.178-6.828h2.834v10.777h-2.834V13.69l-5.178 6.828h-2.834V9.741h2.834zM120.449 13.955l4.181-4.214h3.577l-4.966 5.123 5.385 5.654h-3.7l-4.477-4.346v4.346h-2.834V9.741h2.834z"/></svg>