<svg xmlns="http://www.w3.org/2000/svg" width="288" height="81" fill="none" viewBox="0 0 288 81"><path stroke="url(#a)" stroke-linecap="round" d="M120 26v54"/><path stroke="url(#b)" stroke-linecap="round" d="M179.75 26v54"/><path stroke="url(#c)" stroke-linecap="round" d="M239.5 26v54"/><mask id="g" width="288" height="80" x="0" y="0" maskUnits="userSpaceOnUse" style="mask-type:alpha"><g clip-path="url(#d)"><g clip-path="url(#e)"><path stroke="#f0f1f4" stroke-linecap="square" stroke-width="3" d="M288 44c-50.781 5.836-70.443 5.111-121.154-1.072-38.077-4.643-45.731-.469-83.769 3.42-37.385 3.82-55.385-3.51-83.077-.643"/><path fill="url(#f)" d="M83.077 50.944c38.037-3.843 45.692-7.833 83.769-3.277 50.7 6.066 70.373 6.84 121.154 1.333v31H0V50.389c27.692-2.833 45.692 4.333 83.077.555" opacity=".7"/></g></g></mask><g mask="url(#g)"><path fill="url(#h)" d="M40 0h248v80H40z"/></g><defs><linearGradient id="a" x1="120.5" x2="120.5" y1="80" y2="26" gradientUnits="userSpaceOnUse"><stop stop-color="#c7cdd5" stop-opacity=".2"/><stop offset="1" stop-color="#fff" stop-opacity=".6"/></linearGradient><linearGradient id="b" x1="180.25" x2="180.25" y1="80" y2="26" gradientUnits="userSpaceOnUse"><stop stop-color="#c7cdd5" stop-opacity=".2"/><stop offset="1" stop-color="#fff" stop-opacity=".6"/></linearGradient><linearGradient id="c" x1="240" x2="240" y1="80" y2="26" gradientUnits="userSpaceOnUse"><stop stop-color="#c7cdd5" stop-opacity=".2"/><stop offset="1" stop-color="#fff" stop-opacity=".6"/></linearGradient><linearGradient id="f" x1="166.846" x2="168.714" y1="112.648" y2="45.551" gradientUnits="userSpaceOnUse"><stop stop-color="#fff"/><stop offset="1" stop-color="#f0f1f4"/></linearGradient><linearGradient id="h" x1="205.883" x2="40.023" y1="44.5" y2="46.478" gradientUnits="userSpaceOnUse"><stop stop-color="#f0f1f4"/><stop offset="1" stop-color="#f0f1f4" stop-opacity="0"/></linearGradient><clipPath id="d"><path fill="#fff" d="M0 19.2C0 12.48 0 9.12 1.308 6.552a12 12 0 0 1 5.244-5.244C9.12 0 12.48 0 19.2 0h249.6c6.721 0 10.081 0 12.648 1.308a12 12 0 0 1 5.244 5.244C288 9.12 288 12.48 288 19.2v41.6c0 6.72 0 10.08-1.308 12.648a12 12 0 0 1-5.244 5.244C278.881 80 275.521 80 268.8 80H19.2c-6.72 0-10.08 0-12.648-1.308a12 12 0 0 1-5.244-5.244C0 70.88 0 67.52 0 60.8z"/></clipPath><clipPath id="e"><path fill="#fff" d="M0 0h288v80H0z"/></clipPath></defs></svg>