<svg xmlns="http://www.w3.org/2000/svg" width="115" height="34" fill="none"><path fill="#fff" stroke="#505154" d="M4.726 33.5a3.71 3.71 0 0 1-2.634-1.098A3.766 3.766 0 0 1 1 29.746V4.254a3.763 3.763 0 0 1 1.091-2.657A3.707 3.707 0 0 1 4.726.5h105.548a3.71 3.71 0 0 1 2.634 1.098A3.766 3.766 0 0 1 114 4.254v25.492a3.766 3.766 0 0 1-1.091 2.657 3.707 3.707 0 0 1-2.635 1.097H4.726Z" opacity=".15"/><path fill="#4B545B" fill-rule="evenodd" d="M24.343 5.284c.14 1.283-.365 2.547-1.103 3.476-.77.915-2.002 1.614-3.202 1.524-.157-1.234.45-2.546 1.131-3.347.77-.909 2.105-1.605 3.174-1.653Zm3.928 7.4c-.134.08-2.353 1.413-2.329 4.132.028 3.284 2.854 4.37 2.888 4.381-.017.077-.442 1.567-1.502 3.08-.885 1.332-1.812 2.634-3.285 2.658-.7.016-1.173-.187-1.666-.398-.513-.22-1.049-.45-1.887-.45-.888 0-1.447.237-1.986.466-.467.197-.918.389-1.554.415-1.403.052-2.475-1.422-3.392-2.742-1.833-2.695-3.26-7.596-1.347-10.93.928-1.636 2.618-2.689 4.425-2.717.796-.016 1.56.292 2.228.563.512.207.969.392 1.343.392.328 0 .772-.178 1.29-.384.814-.326 1.812-.725 2.828-.617.695.02 2.673.276 3.949 2.149l-.003.002Z" clip-rule="evenodd" opacity=".6"/><path fill="#93989D" d="M38.05 28v-7.14h1.736V28H38.05Zm.868-8.162c-.63 0-1.022-.406-1.022-.966 0-.56.392-.966 1.022-.966s1.022.406 1.022.966c0 .56-.392.966-1.022.966ZM42.032 28V17.92h3.626c2.254 0 3.598 1.05 3.598 3.108 0 2.1-1.4 3.122-3.724 3.122h-1.75V28h-1.75Zm1.75-8.568v3.262h1.75c1.33 0 1.974-.504 1.974-1.638 0-1.12-.644-1.624-1.974-1.624h-1.75ZM50.68 28V17.92h1.736v3.892c.658-.644 1.526-1.12 2.576-1.12 1.092 0 1.904.504 1.904 1.988V28H55.16v-4.816c0-.742-.336-.98-.882-.98-.686 0-1.33.378-1.862.854V28H50.68Zm9.382-3.542c0 1.75.728 2.436 1.624 2.436.896 0 1.624-.686 1.624-2.436s-.728-2.436-1.624-2.436c-.896 0-1.624.686-1.624 2.436Zm4.984-.056c0 2.576-1.554 3.766-3.388 3.766-1.806 0-3.332-1.162-3.332-3.71 0-2.576 1.554-3.766 3.388-3.766 1.806 0 3.332 1.162 3.332 3.71ZM66.554 28v-7.14h1.736v.952c.658-.644 1.526-1.12 2.576-1.12 1.092 0 1.904.504 1.904 1.988V28h-1.736v-4.816c0-.742-.336-.98-.882-.98-.686 0-1.33.378-1.862.854V28h-1.736Zm10.993-6.048c-.882 0-1.526.63-1.638 1.848h3.066c-.014-1.288-.588-1.848-1.428-1.848Zm3.01 2.968h-4.62c.112 1.414.854 1.946 1.946 1.946.7 0 1.386-.224 2.156-.602l.364 1.246c-.756.406-1.792.658-2.744.658-2.128 0-3.5-1.232-3.5-3.64 0-2.506 1.498-3.836 3.444-3.836 1.806 0 2.996 1.134 2.996 3.472 0 .252-.014.504-.042.756ZM43.61 9.38c0 2.44-1.3 3.74-3.05 3.74-1.73 0-3.01-1.28-3.01-3.7 0-2.44 1.3-3.74 3.05-3.74 1.73 0 3.01 1.28 3.01 3.7Zm-.88.03c0-2.03-.87-2.95-2.15-2.95-1.28 0-2.15.92-2.15 2.95 0 2.03.87 2.95 2.15 2.95 1.28 0 2.15-.92 2.15-2.95Zm1.678-.81v-.7h4.41v.7h-1.78V13h-.85V8.6h-1.78ZM54.11 13h-.93l-.87-1.48c-.35-.59-.59-.84-1.3-.84h-.32V13h-.86V7.9h.86v2.14h.32c.49 0 .63-.13.8-.43l.43-.78c.37-.68.64-.99 1.57-.99v.69c-.5 0-.63.14-.8.44l-.43.78c-.14.26-.29.45-.57.58.53.16.8.47 1.1.97l1 1.7Zm1.033-5.1h.86v.72c.44-.52 1-.84 1.67-.84 1.14 0 1.97.91 1.97 2.62 0 1.79-.91 2.72-2.09 2.72-.61 0-1.11-.25-1.55-.76v2.74h-.86V7.9Zm2.31.63c-.54 0-1.02.29-1.45.77v2.39c.41.47.89.72 1.41.72.82 0 1.37-.62 1.37-1.95 0-1.31-.53-1.93-1.33-1.93ZM66.165 13V7.9h.84V13h-.84Zm-4.43-.63h1.21c.79 0 1.17-.29 1.17-.94 0-.65-.38-.94-1.17-.94h-1.21v1.88Zm1.29.63h-2.15V7.9h.86v1.94h1.34c1.19 0 1.9.52 1.9 1.58s-.73 1.58-1.95 1.58Zm4.986-4.4v-.7h4.41v.7h-1.78V13h-.85V8.6h-1.78Zm6.283 3.77h1.21c.79 0 1.17-.29 1.17-.94 0-.65-.38-.94-1.17-.94h-1.21v1.88Zm1.29.63h-2.15V7.9h.86v1.94h1.34c1.19 0 1.9.52 1.9 1.58s-.73 1.58-1.95 1.58Zm8.74 0v-2.34h-2.5V13h-.86V7.9h.86v2.07h2.5V7.9h.86V13h-.86Zm4.271-4.51c-.59 0-1.13.21-1.67.52l-.22-.68c.55-.3 1.25-.55 2.05-.55 1.07 0 1.72.45 1.72 1.72v2.34c0 .78.05 1.03.1 1.16h-.81c-.05-.09-.1-.25-.12-.64-.44.47-1.03.76-1.69.76-.89 0-1.54-.53-1.54-1.55 0-1.09.74-1.71 2.39-1.71.21 0 .47.01.83.06v-.35c0-.79-.35-1.08-1.04-1.08Zm-.41 3.95c.55 0 1.06-.32 1.45-.7v-1.22c-.41-.06-.58-.07-.78-.07-1.18 0-1.6.35-1.6 1.03 0 .64.37.96.93.96Z"/></svg>