<svg width="80" height="80" fill="none" xmlns="http://www.w3.org/2000/svg"><g clip-path="url(#a)" fill="#000"><path d="M14.55 14.55V2.42H2.42V0h14.55v16.97H0V2.42h2.42v12.13h12.13z"/><path d="M12.12 4.85v7.27H4.85V4.85h7.27zm65.46 9.7V2.42H80v14.55H63.03V0h14.55v2.42H65.45v12.13h12.13z"/><path d="M75.15 4.85v7.27h-7.27V4.85h7.27zm-60.6 72.73V65.45H2.42v12.13H0V63.03h16.97V80H2.42v-2.42h12.13z"/><path d="M12.12 67.88v7.27H4.85v-7.27h7.27zM26.67 0v4.85h-2.43V0h2.43zm9.69 2.42h4.85v2.43h-4.85v2.42h-2.42V9.7h-4.85V4.85h2.43V2.42h2.42V0h2.42v2.42z"/><path d="M29.09 0h2.43v2.42h-2.43V0zm21.82 2.42h-7.27V0h7.27v2.42zM55.76 0h4.85v2.42h-4.85V0zM19.39 2.42h2.43v2.43h-2.43V2.42zm33.94 0h2.43v2.43h-2.43V2.42zM43.64 9.7h-7.28V7.27h9.7V9.7h2.42V7.27h-2.42V4.85h7.27v2.42h-2.42v4.85h-4.85v4.85h2.42v2.42h-2.42v2.43h2.42v-2.43h2.43v2.43h2.42v4.85h2.43v2.42h2.42v-2.42h2.43v4.85h-2.43v2.42h-2.42v-2.42h-2.43v-2.43h-4.85v-4.85H41.2v-2.42h2.44V9.7zm16.97-4.85V9.7h-2.43V4.85h2.43zm-38.79 9.7v2.42h-2.43v-4.85h2.43V9.7h-2.43V7.27h7.28V9.7h-2.43v4.85h-2.42z"/><path d="M58.18 12.12h-4.85V7.27h2.43V9.7h2.42v2.42zM33.94 24.24v2.43h-2.42v-2.43h-2.43v-2.42h2.43v-4.85h2.42v-2.42h-2.42v2.42h-2.43v-2.42h-2.42v-2.43h7.27V9.7h2.42v9.69h-2.42v2.43h4.85v2.42h-4.85zm7.27-12.12v9.7H38.8v-9.7h-.01 2.42zm9.7 0h2.42v2.43h-2.42v-2.43z"/><path d="M26.67 19.39h-2.43v2.43h-9.69v-2.43h7.27v-2.42h2.42v-2.42h2.43v2.42h2.42v4.85h-2.42v-2.43zm21.81-4.84h2.43v2.42h-2.43v-2.42zm12.13 7.27h-2.43v-2.43h-2.42v2.43h-2.43v-2.43h-2.42v-2.42h2.42v-2.42h2.43v2.42h2.42v-2.42h2.43v4.84h2.42v2.43h2.42v2.42h-2.42v2.43h-2.42v-4.85zM19.39 55.76v-2.43h2.43v2.43h2.42v2.42h-2.42v7.27h-2.43v-4.84h-7.27v-4.85H9.7v2.42H7.27v2.43H4.85v-4.85h2.42v-2.43H2.42v7.28H0V48.48h2.42v-2.42h2.43v4.85H9.7v-7.27h2.42v2.42h2.43v2.42h2.42v-2.42h-2.42v-2.42h4.84v9.69h-2.42v-2.42h-2.42v2.42h2.42v2.43h-2.42v2.42h2.42v-2.42h2.42z"/><path d="M12.117 38.79v.01h7.273v2.42H9.7v2.41H7.27v-4.84H4.85v-4.85h2.42v2.42H9.7v-2.42h7.27v-2.42h-4.85v-2.43h4.85v-2.42h-4.85v2.42H9.7v2.43H7.27v-9.7H4.85v4.85H2.42v-4.85H0v-2.43h12.12v4.85h7.27v4.85h7.28v2.43h-7.28v4.84h-7.27v2.43h-.003zM0 46.06V38.8h4.85v2.42H2.42v4.84H0z"/><path d="M0 26.67h2.42v2.42H0v-2.42zm2.42 4.85h2.43v2.42H2.42v-2.42zm2.43 12.12h2.42v2.42H4.85v-2.42zm55.76 29.09h-2.43v2.42h-4.85v-2.42h2.43V70.3h2.42v-2.42h-2.42v-4.85h2.42v-4.85h7.27v-2.42h4.85v-4.85h2.43v4.85h2.42v2.42h-2.42v2.43H70.3v4.84h4.85v2.43H70.3v2.42h4.85v7.28H70.3v-4.85h-4.85V70.3h-2.42v2.43h2.42v2.42h-4.84v-2.42zm0-4.85h7.27v-7.27h-7.27v7.27z"/><path d="M77.58 70.3h-2.43v-2.42H80v4.85h-2.42V70.3zM80 58.18v4.85h-2.42v-4.85H80zm-2.42-4.85v2.43h-2.43v-7.28h2.43v2.43H80v2.42h-2.42zm-14.55-2.42h2.42v2.42h-4.84v-7.27h2.42v4.85zm4.85-4.85v2.42h-2.43v-4.84h7.28v2.42h-4.85zm2.42-4.86h2.43v2.43H70.3v-2.41h-4.85v2.41h-2.42v-2.41h-2.42V38.8h2.42v2.4h2.42v-2.4h4.85v2.4zm-12.12-4.84v-2.42h4.85v-2.42h2.42v7.27h-2.42v-2.43h-2.42v2.43h-4.85v-2.43h2.42zm16.97 0v-4.84H80v2.42h-2.42v2.42h-2.43zm-4.85-7.27h2.43v2.43h-7.28v-4.85h2.43v2.42h2.42zm7.28-4.85v2.43h-2.43v-2.43h-2.42v-2.42h2.42v-2.43h2.43v2.43H80v2.42h-2.42zm-9.7 0h4.85v2.43h-4.85v-2.43zm-2.43-4.85h2.43v2.43h-2.43v-2.43z"/><path d="M70.3 19.39h2.43v2.43H70.3v-2.43zm2.43 7.28h2.42v2.42h-2.42v-2.42zm0 9.69h2.42v2.43h-2.42v-2.43zm0 9.7h2.42v2.42h-2.42v-2.42zm-4.85 2.42h2.42v2.43h-2.42v-2.43zm4.85 12.13h2.42v2.42h-2.42v-2.42zm-9.7 2.42h2.42v2.42h-2.42v-2.42zm12.12 0h2.43v2.42h-2.43v-2.42zm-9.7 12.12h2.43v2.43h-2.43v-2.43zm9.7 2.43h2.43V80h-2.43v-2.42zm2.43-33.95v2.43h-2.43V38.8h2.43v2.4H80v2.43h-2.42zM26.67 21.82v4.85h-2.43v-4.85h2.43zm29.09 0h2.42v2.42h-2.42v-2.42zm-16.97 2.42h2.42v2.43H38.8v-2.43h-.01zm-4.85 7.28h-4.85v-4.85h2.43v2.42h2.42v2.43zm2.42 2.42h-2.42v-2.42h2.42v-2.43h2.43v7.27h-2.43v-2.42zm4.85-4.85h2.43v2.43H41.2v-2.43h.01z"/><path d="M43.64 41.2v-4.84H41.2v-2.42h2.44v-2.42h7.27v2.42h-4.85v2.42h2.42v2.43h-2.42v2.41h2.42v2.43h-2.42v2.43h-2.42v-2.43H41.2V41.2h2.44zm-24.25-2.41v-2.43h7.28v-2.42h7.27v7.26h2.42v2.43h-7.27v-2.41h-2.42v2.41h-4.85v2.43h-2.43V41.2h4.85v-2.4l-4.85-.01zm9.7-2.425v4.855h2.43v-4.855h-2.43z"/><path d="M48.48 33.94h2.43v2.42h-2.43v-2.42zm4.85 0h2.43v2.42h-2.43v-2.42zm-2.42 2.42h2.42v2.43h-2.42v-2.43zM36.36 38.8h2.43v2.42h-2.43V38.8zm12.12 7.26V38.8h2.43v2.4h2.42v2.44h2.43v2.42h-2.43v2.42h-4.85v4.85h-2.42v-2.42h-2.42v-2.43h2.42v-2.42h2.42z"/><path d="M53.33 38.8h2.43v2.42h-2.43V38.8zm2.43 2.4h2.42v2.43h-2.42V41.2zm-19.4 2.44h2.43v2.42h-2.43v-2.42zm21.82 0h2.43v2.42h-2.43v-2.42zm-26.66 2.42v4.85h-2.43v-4.85h2.43zm2.42 0h2.42v2.42h-2.42v-2.42zm19.39 2.42h2.43v2.43h-2.43v-2.43zM26.67 60.61v-4.85h-2.43v-2.43h-2.42v-2.42h4.85v2.42h4.85v2.43h-2.43v4.85h-2.42zm14.54-9.7v2.42h-4.85v-2.42h4.85zm14.55 2.42v9.7h-2.43v-4.85h-4.85v-4.85h2.43v-2.42h2.42v2.42h2.43zm0-2.42h2.42v2.42h-2.42v-2.42zM24.24 63.03h2.43v2.42h-2.43v-2.42zm4.85 12.12V80h-9.7V67.88h2.43v2.42h2.42v2.43h-2.42v2.42h2.42v-2.42h7.28v2.42h-2.43zm4.85-7.27h2.42v2.42h-2.42v-2.42zm12.12 7.27h2.42v2.43h-2.42v-2.43zm4.85 0h2.42v2.43h-2.42v-2.43z"/><path d="M43.64 72.73v4.85h-2.43V80h-4.85v-2.42h-2.42v-2.43h2.42v-2.42h2.43v2.42h2.41V70.3h-2.4v-2.42h-2.44v-2.43h-2.42v2.43h-2.42v2.42h-2.43v-4.85h2.43v-2.42h-2.43v-2.42h4.85v2.42h7.26v-2.42h-4.84v-2.43h2.44v-2.42h-.01 2.42v2.42h2.43v2.43h2.42v-2.43h2.42v2.43h2.43v2.42h2.42v4.85h-4.85v2.42h2.43v4.85h-2.43v-2.42h-4.84zm-2.43-9.7v4.85h2.43v2.425h2.42V65.45h2.42v-2.42h-7.27z"/><path d="M43.64 77.58h2.42V80h-2.42v-2.42zM60.61 80h-7.28v-2.42h7.28V80z"/></g><defs><clipPath id="a"><path fill="#fff" d="M0 0h80v80H0z"/></clipPath></defs></svg>